<?xml version="1.0" standalone="no"?>
<!DOCTYPE svg PUBLIC "-//W3C//DTD SVG 20010904//EN"
 "http://www.w3.org/TR/2001/REC-SVG-20010904/DTD/svg10.dtd">
<svg version="1.0" xmlns="http://www.w3.org/2000/svg"
 width="200.000000pt" height="200.000000pt" viewBox="0 0 200.000000 200.000000"
 preserveAspectRatio="xMidYMid meet">
<metadata>
Created by potrace 1.14, written by Peter Selinger 2001-2017
</metadata>
<g transform="translate(0.000000,200.000000) scale(0.100000,-0.100000)"
fill="#000000" stroke="none">
<path d="M722 1888 c-18 -18 -16 -23 28 -70 49 -51 113 -155 135 -218 l16 -44
-28 26 c-52 48 -100 61 -122 34 -17 -20 -4 -43 29 -49 37 -8 74 -46 106 -109
14 -27 24 -51 22 -51 -73 -35 -85 -45 -111 -98 -22 -43 -28 -70 -28 -121 0
-36 4 -76 11 -88 6 -11 13 -51 15 -88 5 -81 12 -129 30 -202 7 -30 15 -87 18
-127 3 -39 10 -80 16 -91 6 -12 13 -40 16 -64 15 -128 53 -291 86 -367 36 -85
84 -78 119 16 23 61 64 242 75 332 4 29 13 70 20 91 7 21 15 67 16 102 1 34 8
82 15 105 16 52 22 95 29 188 3 39 10 85 16 104 40 121 -15 275 -106 297 -47
11 -47 12 -18 66 32 58 75 98 108 98 14 0 25 7 28 19 12 46 -50 55 -107 16
-36 -24 -36 -25 -25 -2 24 44 74 113 118 160 37 39 43 52 34 65 -24 38 -59 13
-144 -102 -33 -44 -59 -77 -59 -74 0 18 44 196 52 211 11 21 -5 47 -29 47 -16
0 -48 -68 -57 -120 -3 -19 -12 -60 -20 -90 -11 -43 -14 -48 -15 -25 -4 102
-61 235 -100 235 -31 0 -34 -33 -7 -81 13 -24 30 -73 36 -109 6 -36 13 -74 15
-85 4 -20 4 -20 -10 -1 -8 11 -15 24 -15 29 0 19 -82 147 -125 195 -48 54 -63
60 -83 40z m276 -557 c10 -6 23 -6 35 0 36 20 95 15 121 -10 59 -56 69 -219
13 -222 -47 -4 -73 -2 -99 5 -21 6 -29 4 -37 -13 -16 -30 26 -55 94 -56 l53 0
-5 -60 c-3 -33 -12 -87 -20 -120 -8 -33 -17 -82 -19 -110 -9 -144 -17 -156
-101 -147 -41 4 -43 3 -43 -21 0 -31 3 -34 60 -42 25 -4 46 -8 47 -9 1 -1 -7
-46 -18 -101 -11 -55 -22 -111 -25 -125 -4 -23 -18 -72 -30 -110 -9 -26 -22
10 -48 127 -27 118 -34 162 -42 238 -3 27 -10 55 -16 62 -5 7 -12 45 -15 85
l-5 73 47 2 c52 3 75 16 75 44 0 26 -13 31 -59 20 -79 -18 -91 1 -104 174 -3
39 -11 85 -17 103 -17 46 -7 148 18 181 34 46 91 59 140 32z"/>
</g>
</svg>
